<svg id="Layer_1" data-name="Layer 1" xmlns="http://www.w3.org/2000/svg" viewBox="0 0 300 300"><defs><style>.cls-1{fill:#5c6b99;}.cls-2{fill:#bdc6e0;}.cls-3{fill:none;stroke:#5c6b99;stroke-linejoin:round;stroke-width:5px;stroke-dasharray:12.09 12.09;}</style></defs><rect class="cls-1" width="300" height="300"/><path class="cls-2" d="M117.92,27.5h46.16a51,51,0,0,1,51,50.83v1a51,51,0,0,1-51,51.17h-.89a17.8,17.8,0,0,0-17.79,18l1.3,106a17.79,17.79,0,0,1-17.78,18h-26a18.05,18.05,0,0,1-18-18V45.5a18.05,18.05,0,0,1,18-18Z"/><path class="cls-3" d="M117.92,27.5h46.16a51,51,0,0,1,51,50.83v1a51,51,0,0,1-51,51.17h-.89a17.8,17.8,0,0,0-17.79,18l1.3,106a17.79,17.79,0,0,1-17.78,18h-26a18.05,18.05,0,0,1-18-18V45.5a18.05,18.05,0,0,1,18-18Z"/></svg>