<?xml version="1.0" standalone="no"?>
<!DOCTYPE svg PUBLIC "-//W3C//DTD SVG 20010904//EN"
 "http://www.w3.org/TR/2001/REC-SVG-20010904/DTD/svg10.dtd">
<svg version="1.0" xmlns="http://www.w3.org/2000/svg"
 width="700.000000pt" height="700.000000pt" viewBox="0 0 700.000000 700.000000"
 preserveAspectRatio="xMidYMid meet">
<metadata>
Created by potrace 1.11, written by Peter Selinger 2001-2013
</metadata>
<g transform="translate(0.000000,700.000000) scale(0.100000,-0.100000)"
fill="#000000" stroke="none">
<path d="M0 3500 l0 -3500 3500 0 3500 0 0 3500 0 3500 -3500 0 -3500 0 0
-3500z m2750 2830 l0 -30 140 0 140 0 0 30 0 30 145 0 145 0 0 -30 0 -30 140
0 140 0 0 30 0 30 140 0 140 0 0 -29 c0 -28 2 -29 63 -35 34 -4 91 -14 125
-22 70 -16 82 -13 82 18 0 27 28 21 150 -31 112 -48 117 -53 102 -85 -10 -23
-8 -27 36 -54 27 -16 74 -51 106 -76 53 -44 59 -46 75 -32 10 9 22 16 27 16
16 0 174 -188 174 -207 0 -4 -9 -14 -19 -20 -19 -12 -17 -17 35 -119 30 -59
54 -113 54 -121 0 -10 6 -12 23 -8 12 4 26 8 32 9 11 1 51 -143 61 -220 6 -53
6 -54 -19 -54 l-26 0 -3 -135 c-3 -135 -3 -135 20 -135 12 0 25 -6 28 -14 11
-28 -48 -267 -64 -265 -4 0 -16 4 -26 8 -17 6 -27 -8 -79 -112 l-60 -120 22
-16 23 -17 -43 -55 c-23 -30 -65 -78 -92 -106 -51 -52 -51 -53 -72 -33 -20 19
-21 19 -85 -32 -36 -27 -84 -61 -108 -75 -42 -25 -43 -26 -27 -50 9 -14 15
-26 13 -28 -30 -27 -244 -109 -259 -99 -5 3 -9 14 -9 26 0 18 -4 20 -32 14
-31 -6 -128 -22 -205 -32 -29 -4 -33 -9 -33 -34 l0 -30 -70 0 c-63 0 -111 -11
-192 -45 -11 -4 -18 0 -23 14 -3 12 -13 21 -21 21 -38 0 -194 -182 -194 -226
0 -7 12 -15 26 -18 17 -5 24 -12 20 -22 -15 -39 -28 -153 -23 -205 l5 -59 -29
0 -29 0 0 -140 0 -140 30 0 30 0 0 -145 0 -145 -31 0 -32 0 7 -61 c3 -34 6
-97 6 -140 l0 -79 30 0 30 0 0 -140 0 -140 -30 0 -30 0 0 -140 0 -140 30 0 30
0 0 -72 c0 -40 3 -103 6 -139 l7 -67 -32 -7 -31 -7 0 -133 0 -134 28 -3 27 -3
3 -142 3 -143 -28 0 -28 0 -2 -83 c-1 -45 -8 -101 -17 -125 -15 -42 -15 -43 9
-52 32 -12 31 -18 -3 -66 -49 -67 -172 -164 -172 -136 0 4 -6 16 -12 25 -12
15 -17 15 -62 2 -27 -8 -82 -15 -123 -15 l-73 0 0 -30 0 -30 -140 0 -140 0 0
30 0 30 -140 0 -140 0 0 -25 c0 -21 -5 -25 -28 -25 -34 0 -157 60 -196 95
l-28 26 21 23 c20 21 20 24 6 36 -22 19 -62 98 -75 152 -11 41 -13 44 -41 40
l-29 -4 0 146 0 146 30 0 30 0 0 140 0 140 -30 0 -30 0 0 140 0 140 30 0 30 0
0 140 0 140 -30 0 -31 0 3 143 3 142 28 3 27 3 0 140 0 139 -30 0 -30 0 0 140
0 140 30 0 30 0 0 140 0 140 -30 0 -30 0 0 140 0 140 30 0 30 0 0 140 0 140
-30 0 -30 0 0 145 0 145 30 0 30 0 0 140 0 140 -30 0 -30 0 0 140 0 140 30 0
30 0 0 140 0 140 -30 0 -30 0 0 145 0 145 30 0 30 0 0 140 0 140 -30 0 -30 0
0 140 0 140 29 0 29 0 5 103 c3 56 9 114 12 129 6 21 3 27 -14 33 -12 3 -21
13 -21 21 0 33 78 133 132 171 l40 27 19 -22 18 -23 60 21 c34 11 87 20 121
20 l60 0 0 30 0 30 140 0 140 0 0 -30z"/>
</g>
</svg>
